<svg version="1.2" xmlns="http://www.w3.org/2000/svg" viewBox="0 0 1000 1000" width="1000" height="1000">
	<defs>
		<clipPath clipPathUnits="userSpaceOnUse" id="cp1">
			<path d="m771.56 405.12c72.14 149.97 9.04 330.04-140.94 402.18-149.98 72.14-330.04 9.04-402.18-140.94-72.14-149.98-9.04-330.04 140.94-402.18 149.98-72.14 330.04-9.04 402.18 140.94z"/>
		</clipPath>
		<clipPath clipPathUnits="userSpaceOnUse" id="cp2">
			<path d="m1000 1000h-1000v-1000h1000z"/>
		</clipPath>
	</defs>
	<style>
		.s0 { fill: #9a5b48 } 
		.s1 { fill: #272626 } 
		.s2 { fill: #ffffff } 
		.s3 { fill: #7cb9f1 } 
		.s4 { fill: none;stroke: #272626;stroke-linecap: round;stroke-linejoin: round;stroke-width: 3.9 } 
		.s5 { fill: #efc242 } 
		.s6 { fill: #949ca8 } 
		.s7 { fill: #b0bac6 } 
		.s8 { fill: #595e66 } 
		.s9 { fill: #727884 } 
		.s10 { opacity: .44;fill: #ffffff } 
		.s11 { fill: none;stroke: #272626;stroke-linecap: round;stroke-linejoin: round;stroke-width: 5.8 } 
		.s12 { fill: none;stroke: #efc242;stroke-linecap: round;stroke-linejoin: round;stroke-width: 5.8 } 
		.s13 { fill: none;stroke: #ffffff;stroke-linecap: round;stroke-linejoin: round;stroke-width: 3.1 } 
		.s14 { fill: none;stroke: #272626;stroke-linecap: round;stroke-linejoin: round;stroke-width: 3.1 } 
	</style>
	<g id="OBJECTS">
		<g id="&lt;Group&gt;">
			<g id="&lt;Clip Group&gt;" clip-path="url(#cp1)">
			</g>
		</g>
		<g id="&lt;Clip Group&gt;" clip-path="url(#cp2)">
			<g id="&lt;Group&gt;">
				<path id="&lt;Path&gt;" class="s0" d="m799.67 1242.14c-2.7 31.33-6.31 61.54-9.01 92.87-30.07 6.32-61.79 4.23-91.1-5.01q1.49-35.54 2.98-71.07c28.54-18.53 64.33-25.88 97.13-16.79z"/>
				<g id="&lt;Group&gt;">
					<path id="&lt;Path&gt;" class="s1" d="m808.81 1390.53c-4.49-25.38-8.37-50.68-12.86-76.06-23.65 4.05-46.33 7.25-69.98 11.29-4.84-14.4-13.55-24.98-26.2-33.42q-7.57 15.03-15.13 30.06c-12.34 24.51-37.81 43.23-63.08 53.92-10.31 4.36-21.55 7.56-29.7 15.25z"/>
					<path id="&lt;Path&gt;" class="s2" d="m617.22 1389.25c-0.76 0-1.42-0.59-1.47-1.37-0.06-0.82 0.55-1.53 1.37-1.59l179.8-13.13c0.7-0.08 1.52 0.55 1.58 1.37 0.06 0.82-0.55 1.53-1.37 1.59l-179.8 13.13q-0.05 0-0.11 0z"/>
				</g>
				<path id="&lt;Path&gt;" class="s0" d="m939.53 1241.62c-2.7 31.33-6.31 61.54-9.01 92.87-30.07 6.32-61.79 4.23-91.1-5.01q1.49-35.54 2.98-71.08c28.55-18.52 64.33-25.87 97.13-16.78z"/>
				<g id="&lt;Group&gt;">
					<path id="&lt;Path&gt;" class="s1" d="m948.67 1390c-4.49-25.37-8.36-50.67-12.85-76.05-23.66 4.05-46.34 7.24-69.99 11.29-4.84-14.4-13.55-24.98-26.19-33.42q-7.57 15.03-15.14 30.06c-12.34 24.5-37.81 43.23-63.07 53.92-10.32 4.36-21.56 7.56-29.71 15.25z"/>
					<path id="&lt;Path&gt;" class="s2" d="m757.09 1388.73c-0.77 0-1.42-0.59-1.48-1.37-0.06-0.82 0.56-1.53 1.37-1.59l179.8-13.13c0.71-0.08 1.52 0.55 1.58 1.37 0.06 0.82-0.55 1.53-1.37 1.59l-179.79 13.13q-0.06 0-0.11 0z"/>
				</g>
				<g id="&lt;Group&gt;">
					<path id="&lt;Path&gt;" class="s0" d="m179.36 553.73c34.19 18.55 225.25 47.45 225.25 47.45q17.17-14.9 34.33-29.8c21.35 2.79 43.31 12.27 57.45 28.51 14.14 16.24 22.08 37.74 21.9 59.27-18.37 16.68-37.17 32.77-58.45 45.54-21.27 12.78-45.73 21.43-70.52 20.25-64.17-3.07-127.97-25.39-183.25-58.12-36.38-21.53-70.06-46.91-92.71-82.61-6.43-10.13-12.25-22.06-9.41-33.72 3.6-14.83 20.46-23.26 35.7-22.51 15.25 0.75 29.19 8.37 42.51 15.82-0.37 3.4-2.43 6.52-2.8 9.92z"/>
					<path id="&lt;Path&gt;" class="s1" d="m424.52 621.08c0.44 0 0.87-0.17 1.19-0.52 0.6-0.66 0.55-1.68-0.11-2.27l-19.32-17.53c-0.66-0.6-1.68-0.55-2.27 0.11-0.6 0.65-0.55 1.67 0.11 2.27l19.32 17.53c0.31 0.28 0.7 0.41 1.08 0.41z"/>
				</g>
				<g id="&lt;Group&gt;">
					<path id="&lt;Path&gt;" class="s3" d="m941.23 1281.99l-243.6 0.78c-2.1-101.84-49.99-528.07-43.11-587.09 90.51-5.38 182.43-4.36 272.95-9.75 8.37 39.69 12.13 80.36 11.18 120.91-0.63 26.71-3.31 417.51 2.58 475.15z"/>
					<path id="&lt;Path&gt;" class="s1" d="m751.2 757.35q0.24-0.03 0.46-0.14c0.47-0.22 0.8-0.65 0.89-1.16l8.66-46.91c0.16-0.87-0.42-1.71-1.29-1.87-0.87-0.16-1.71 0.41-1.88 1.29l-8.25 44.72-11.15-6.11c-0.91-6.63-1.55-13.3-2.17-19.75-0.66-6.75-1.33-13.72-2.31-20.69-0.12-0.88-0.93-1.49-1.81-1.36-0.88 0.12-1.49 0.93-1.37 1.81 0.97 6.89 1.64 13.84 2.29 20.55 0.65 6.75 1.32 13.72 2.3 20.68 0.07 0.5 0.37 0.94 0.82 1.19l13.81 7.57q0.48 0.25 1 0.18z"/>
					<path id="&lt;Path&gt;" class="s1" d="m914.77 784.8c0.68-0.1 1.25-0.63 1.37-1.35 0.13-0.88-0.47-1.7-1.35-1.83-41.34-6.39-78.4-35.49-94.41-74.13-0.34-0.83-1.27-1.22-2.1-0.88-0.82 0.34-1.21 1.29-0.87 2.1 16.43 39.67 54.47 69.53 96.89 76.08q0.24 0.04 0.47 0.01z"/>
					<path id="&lt;Path&gt;" class="s2" d="m650.47 773.81c0.52-0.07 1-0.39 1.23-0.9l28.37-60.02c0.38-0.8 0.03-1.76-0.77-2.14-0.8-0.38-1.76-0.04-2.14 0.77l-28.36 60.01c-0.38 0.8-0.04 1.76 0.76 2.14q0.46 0.21 0.91 0.14z"/>
					<path id="&lt;Path&gt;" class="s4" d="m813.56 1282.4l-61.87-450.59-36.59-29.5"/>
				</g>
				<g id="&lt;Group&gt;">
					<path id="&lt;Path&gt;" class="s5" d="m418.9 586.47c40.76 21.4 111.48 78.83 153.68 74.88 34.9 34.61 60.97 100.68 60.97 100.68l297.6-77.29c-15-43.6-36.94-103.34-77.35-163.47-56.92-84.7-74.87-104.53-98.36-126.28-37.7-34.91-87.03-44.17-135.41-32.44-29.35 7.11-56.98 21.2-79.97 40.78-13.91 11.84-25.07 27.21-35.97 41.87-51.25 68.9-69.72 112.14-85.19 141.27z"/>
					<path id="&lt;Path&gt;" class="s1" d="m568.67 647.47c0.57-0.58 0.62-1.53 0.07-2.17l-43.31-50.65c-0.57-0.67-1.59-0.75-2.27-0.17-0.65 0.55-0.75 1.59-0.17 2.26l43.31 50.65c0.57 0.68 1.59 0.76 2.26 0.18q0.06-0.05 0.11-0.1z"/>
					<path id="&lt;Path&gt;" class="s1" d="m906.88 653.06c0.76-0.31 1.18-1.16 0.92-1.97-0.26-0.85-1.17-1.32-2.01-1.05l-229.55 72.33c-0.86 0.26-1.31 1.16-1.05 2.01 0.27 0.85 1.17 1.32 2.02 1.05l229.54-72.33q0.06-0.01 0.13-0.04z"/>
					<path id="&lt;Path&gt;" class="s1" d="m550.39 458.99c2.85-2.9 5.38-6.17 7.51-9.74 9.73-16.31 10.09-38.24 0.92-55.87-0.41-0.79-1.38-1.09-2.17-0.68-0.79 0.41-1.09 1.38-0.68 2.17 8.67 16.65 8.35 37.36-0.83 52.74-6.36 10.66-16.57 18.46-28.01 21.38-11.8 3.01-24.87 0.46-34.1-6.65-0.7-0.54-1.73-0.38-2.25 0.29-0.54 0.71-0.41 1.72 0.29 2.26 9.99 7.7 24.12 10.47 36.86 7.22 8.41-2.15 16.2-6.75 22.46-13.12z"/>
					<path id="&lt;Path&gt;" class="s1" d="m771.99 569.86c0.55-0.18 0.99-0.66 1.09-1.27 4.28-25.88 6.28-52.31 5.95-78.56-0.25-19.7-3.75-47.7-18.97-69.22-14.85-20.99-39.82-32.87-62.14-29.57-18.97 2.8-36.88 15.97-49.13 36.12-10.86 17.88-16.15 38.3-21.27 58.05l-15.52 59.98c-0.23 0.86 0.29 1.73 1.15 1.96 0.86 0.21 1.73-0.3 1.96-1.16l15.53-59.98c5.05-19.52 10.28-39.7 20.9-57.18 11.75-19.33 28.83-31.93 46.85-34.61 21.15-3.13 44.88 8.22 59.05 28.25 14.74 20.84 18.13 48.16 18.37 67.4 0.34 26.06-1.65 52.3-5.89 78-0.15 0.87 0.44 1.7 1.32 1.84q0.39 0.06 0.75-0.05z"/>
					<path id="&lt;Path&gt;" class="s1" d="m543.85 619.21q0.22-0.21 0.34-0.51c0.34-0.82-0.05-1.76-0.87-2.1l-28.21-11.68c-0.82-0.34-1.76 0.05-2.1 0.87-0.34 0.82 0.05 1.76 0.87 2.1l28.21 11.68c0.63 0.26 1.32 0.1 1.76-0.36z"/>
					<path id="&lt;Path&gt;" class="s1" d="m775.09 544.05c0.56-0.18 1-0.66 1.1-1.28 0.13-0.88-0.47-1.7-1.35-1.84l-151.43-23.2c-0.88-0.13-1.69 0.47-1.83 1.35-0.13 0.87 0.47 1.7 1.35 1.83l151.42 23.2q0.39 0.06 0.74-0.06z"/>
				</g>
				<g id="&lt;Group&gt;">
					<g id="&lt;Group&gt;">
						<g id="&lt;Group&gt;">
							<path id="&lt;Path&gt;" class="s1" d="m291.75 851.9l-34.78 0.04-0.18-143.51 34.77-0.04z"/>
						</g>
						<g id="&lt;Group&gt;">
							<path id="&lt;Path&gt;" class="s1" d="m288.28 1044.8l-27.2 0.04-0.05-160.99 27.2-0.04z"/>
						</g>
						<g id="&lt;Group&gt;">
							<path id="&lt;Path&gt;" class="s1" d="m285.9 1389.01l-19.53 0.03-0.08-326.28 19.51-0.03z"/>
						</g>
						<g id="&lt;Group&gt;">
							<g id="&lt;Group&gt;">
								<path id="&lt;Path&gt;" class="s2" d="m297.44 900.65l-44.41 0.08 0.11-58.62 44.41-0.08z"/>
							</g>
						</g>
						<g id="&lt;Group&gt;">
							<g id="&lt;Group&gt;">
								<path id="&lt;Path&gt;" class="s2" d="m290.65 1070.08l-31.47 0.05 0.09-44.07 31.46-0.06z"/>
							</g>
						</g>
						<g id="&lt;Group&gt;">
							<g id="&lt;Group&gt;">
								<path id="&lt;Path&gt;" class="s2" d="m289.22 1189.91l-25.75 0.01 0.13-24.6h25.75z"/>
							</g>
						</g>
						<g id="&lt;Group&gt;">
							<path id="&lt;Path&gt;" class="s1" d="m289.22 1392.19l-25.75 0.01 0.13-24.6h25.75z"/>
						</g>
					</g>
					<g id="&lt;Group&gt;">
						<path id="&lt;Path&gt;" class="s1" d="m235.8 613.95h75.92v-23.09h-75.92z"/>
					</g>
					<g id="&lt;Group&gt;">
						<path id="&lt;Path&gt;" class="s2" d="m138.97 628.22h90.29v-10.45h-90.29z"/>
					</g>
					<g id="&lt;Group&gt;">
						<path id="&lt;Path&gt;" class="s1" d="m80.86 621.76c0 8.22 6.66 14.88 14.88 14.88h49.25c8.21 0 14.87-6.66 14.87-14.88 0-8.21-6.66-14.87-14.87-14.87h-49.25c-8.22 0-14.88 6.66-14.88 14.87z"/>
					</g>
					<g id="&lt;Group&gt;">
						<g id="&lt;Group&gt;">
							<path id="&lt;Path&gt;" class="s1" d="m193.69 862.83l31.9 13.87 64.23-147.71-31.89-13.87z"/>
						</g>
						<g id="&lt;Group&gt;">
							<path id="&lt;Path&gt;" class="s1" d="m120.15 1041.2l24.94 10.85 64.08-147.69-24.94-10.85z"/>
						</g>
						<g id="&lt;Group&gt;">
							<path id="&lt;Path&gt;" class="s1" d="m-26.94 1378.59l18.23 6.73 141.9-318.89-17.9-7.79z"/>
						</g>
						<g id="&lt;Group&gt;">
							<g id="&lt;Group&gt;">
								<path id="&lt;Path&gt;" class="s2" d="m169.08 905.3l40.71 17.74 23.22-53.83-40.71-17.74z"/>
							</g>
						</g>
						<g id="&lt;Group&gt;">
							<g id="&lt;Group&gt;">
								<path id="&lt;Path&gt;" class="s2" d="m107.92 1063.45l28.85 12.56 17.45-40.47-28.84-12.56z"/>
							</g>
						</g>
						<g id="&lt;Group&gt;">
							<g id="&lt;Group&gt;">
								<path id="&lt;Path&gt;" class="s2" d="m61.56 1173.96l23.63 10.25 9.67-22.62-23.63-10.25z"/>
							</g>
						</g>
						<g id="&lt;Group&gt;">
							<path id="&lt;Path&gt;" class="s1" d="m-31.56 1378.79l23.63 10.25 9.67-22.62-23.63-10.25z"/>
						</g>
					</g>
					<g id="&lt;Group&gt;">
						<g id="&lt;Group&gt;">
							<path id="&lt;Path&gt;" class="s1" d="m355.68 862.83l-31.89 13.87-64.24-147.71 31.89-13.87z"/>
						</g>
						<g id="&lt;Group&gt;">
							<path id="&lt;Path&gt;" class="s1" d="m429.22 1041.2l-24.93 10.85-64.08-147.69 24.93-10.85z"/>
						</g>
						<g id="&lt;Group&gt;">
							<path id="&lt;Path&gt;" class="s1" d="m573.04 1378.46l-17.18 7.44-139.67-319.47 17.9-7.79z"/>
						</g>
						<g id="&lt;Group&gt;">
							<g id="&lt;Group&gt;">
								<path id="&lt;Path&gt;" class="s2" d="m380.29 905.3l-40.71 17.74-23.21-53.83 40.71-17.74z"/>
							</g>
						</g>
						<g id="&lt;Group&gt;">
							<path id="&lt;Path&gt;" class="s2" d="m441.45 1063.45l-28.85 12.56-17.45-40.47 28.85-12.56z"/>
						</g>
						<g id="&lt;Group&gt;">
							<g id="&lt;Group&gt;">
								<path id="&lt;Path&gt;" class="s2" d="m487.81 1173.96l-23.63 10.25-9.66-22.62 23.62-10.25z"/>
							</g>
						</g>
						<g id="&lt;Group&gt;">
							<path id="&lt;Path&gt;" class="s1" d="m577.71 1379.09l-23.63 10.25-9.66-22.62 23.63-10.25z"/>
						</g>
					</g>
					<g id="&lt;Group&gt;">
						<path id="&lt;Path&gt;" class="s1" d="m261.19 708.54h24.72v-51.34h-24.72z"/>
					</g>
					<g id="&lt;Group&gt;">
						<path id="&lt;Path&gt;" class="s2" d="m232.78 718.36c0 8.33 6.76 15.1 15.1 15.1h53.6c8.35 0 15.1-6.77 15.1-15.1v-4.54c0-8.33-6.75-15.09-15.1-15.09h-53.6c-8.34 0-15.1 6.76-15.1 15.09z"/>
					</g>
					<g id="&lt;Group&gt;">
						<path id="&lt;Path&gt;" class="s1" d="m221.43 622.75c0 8.21 6.67 14.87 14.88 14.87h74.9c8.21 0 14.88-6.66 14.88-14.87 0-8.22-6.67-14.88-14.88-14.88h-74.9c-8.21 0-14.88 6.66-14.88 14.88z"/>
					</g>
					<g id="&lt;Group&gt;">
						<path id="&lt;Path&gt;" class="s1" d="m290.59 663l16.82-29.15h-67.31l16.83 29.15z"/>
					</g>
					<g id="&lt;Group&gt;">
						<path id="&lt;Path&gt;" class="s2" d="m256.32 629.79c0 9.63 7.81 17.44 17.44 17.44 9.64 0 17.44-7.81 17.44-17.44 0-9.63-7.8-17.44-17.44-17.44-9.63 0-17.44 7.81-17.44 17.44z"/>
					</g>
				</g>
				<path id="&lt;Path&gt;" class="s0" d="m500.63 451.34c-11.5-10.14-22.05-19.8-33.55-29.94 11.37-16.09 24.63-31.76 36-47.85q21.11 14.95 42.23 29.9c3.44 9.72 5.5 20.49 2.76 30.43-2.75 9.94-9.5 18.95-18.83 23.33-9.33 4.39-20.88 0.95-28.61-5.87z"/>
				<g id="&lt;Group&gt;">
					<path id="&lt;Path&gt;" class="s0" d="m465.09 586.58c-22.16-54.6 20.57-76.31 40.28-60.02 37.1 30.67 104.77 78.23 104.77 78.23 0 0 5.36-31.88 11.42-57.51 58.66 12.6 139.67 22.65 139.67 22.65 0 0 5.05 141.76-38.78 185.59-56.34 56.34-117.83 43.52-157.7-2.05-20.27-23.18-86.76-135.09-99.66-166.89z"/>
					<path id="&lt;Path&gt;" class="s1" d="m510.11 673.31q0.38 0.01 0.74-0.18c0.79-0.41 1.09-1.39 0.68-2.17l-46.1-87.85c-0.41-0.79-1.39-1.09-2.17-0.67-0.79 0.41-1.09 1.38-0.68 2.16l46.1 87.85c0.29 0.55 0.85 0.86 1.43 0.86z"/>
					<path id="&lt;Path&gt;" class="s1" d="m636.3 641.97c0.36 0 0.73-0.12 1.02-0.36 0.69-0.57 0.79-1.58 0.23-2.26l-22.76-27.74c-0.56-0.69-1.58-0.78-2.26-0.22-0.68 0.56-0.78 1.57-0.22 2.26l22.75 27.74c0.32 0.38 0.78 0.58 1.24 0.58z"/>
				</g>
				<g id="&lt;Group&gt;">
					<path id="&lt;Path&gt;" class="s2" d="m210.25 482.65h15.8v-8.99h-15.8z"/>
					<path id="&lt;Path&gt;" class="s2" d="m314.03 482.65h26.72v-8.99h-26.72z"/>
					<path id="&lt;Path&gt;" class="s1" d="m185.53 500.25v82.22c0 3.89 3.17 7.06 7.07 7.06h164.17c3.89 0 7.06-3.17 7.06-7.06v-82.22q-0.01-1.06-0.09-2.11c-1.07-11.21-10.53-19.98-22.01-19.98h-134.1c-11.48 0-20.94 8.77-22 19.98q-0.09 1.05-0.1 2.11z"/>
					<path id="&lt;Path&gt;" class="s1" d="m356.77 589.53h-104.9v-57.66h111.96v50.6c0 3.89-3.17 7.06-7.06 7.06z"/>
					<path id="&lt;Path&gt;" class="s6" d="m185.63 498.14h178.11c-1.07-11.21-10.53-19.98-22.01-19.98h-134.1c-11.48 0-20.94 8.77-22 19.98z"/>
					<path id="&lt;Path&gt;" class="s7" d="m325.98 541.07c0 32.66-27.17 59-60.14 57.63-29.53-1.24-53.65-25.13-55.15-54.65q-0.12-2.44-0.03-4.84c0.16-5.47-4.14-10.03-9.61-10.03-3.86 0-7.36-1.58-9.9-4.12-2.54-2.54-4.12-6.05-4.12-9.91 0-3.87 1.58-7.37 4.12-9.92 2.55-2.53 6.05-4.11 9.9-4.11 6.57 0 12.8-1.97 18.04-5.45 5.25-3.48 9.48-8.47 12.03-14.52l5.46-12.98c1.91-4.53 6.33-7.47 11.24-7.47h40.96c4.91 0 9.34 2.94 11.24 7.47l19.47 46.27 3.63 8.67 0.01 0.02c1.86 5.65 2.85 11.67 2.85 17.94z"/>
					<path id="&lt;Path&gt;" class="s1" d="m206.99 512.88c0 3.86-3.13 6.99-6.98 6.99-3.86 0-6.98-3.13-6.98-6.99 0-3.85 3.12-6.98 6.98-6.98 3.85 0 6.98 3.13 6.98 6.98z"/>
					<g id="&lt;Group&gt;">
						<g id="&lt;Group&gt;">
							<g id="&lt;Group&gt;">
								<g id="&lt;Group&gt;">
									<path id="&lt;Path&gt;" class="s1" d="m217.04 539.19c0 28.02 22.8 50.84 50.82 50.84 28.03 0 50.83-22.82 50.83-50.84 0-28.03-22.8-50.83-50.83-50.83-28.02 0-50.82 22.8-50.82 50.83z"/>
								</g>
								<g id="&lt;Group&gt;">
									<path id="&lt;Compound Path&gt;" fill-rule="evenodd" class="s8" d="m215.3 539.19c0-28.99 23.58-52.57 52.56-52.57 28.99 0 52.57 23.58 52.57 52.57 0 28.99-23.58 52.58-52.57 52.58-28.98 0-52.56-23.59-52.56-52.58zm3.48 0c0 27.07 22.02 49.1 49.08 49.1 27.07 0 49.09-22.03 49.09-49.1 0-27.07-22.02-49.09-49.09-49.09-27.06 0-49.08 22.02-49.08 49.09z"/>
								</g>
							</g>
							<path id="&lt;Compound Path&gt;" fill-rule="evenodd" class="s2" d="m267.87 479.65c32.82 0 59.52 26.72 59.52 59.54 0 18.28-8.28 34.69-21.3 45.63q-0.37 0.3-0.73 0.58-0.69 0.57-1.39 1.11-0.21 0.18-0.42 0.34-3.48 2.57-7.29 4.69l-0.04 0.02q-0.3 0.14-0.61 0.3c-8.27 4.39-17.72 6.89-27.74 6.89-9.35 0-18.23-2.17-26.12-6.06q-0.64-0.3-1.25-0.62-0.49-0.24-0.94-0.51-0.06-0.03-0.12-0.06c-13.01-7.11-23.1-18.93-27.93-33.14-0.1-0.2-0.16-0.43-0.24-0.65-1.9-5.84-2.92-12.06-2.92-18.52 0-32.82 26.68-59.54 59.52-59.54zm-20.72 110.72q0.02 0 0.02 0 2.03 0.83 4.15 1.47l0.02 0.02c5.21 1.65 10.77 2.52 16.53 2.52 5.76 0 11.29-0.87 16.51-2.52 3.56-1.12 6.99-2.59 10.21-4.37q0.02 0.01 0.04-0.02 1.69-0.96 3.32-2.01c15.1-9.85 25.09-26.88 25.09-46.27 0-30.49-24.71-55.17-55.17-55.17-30.49 0-55.2 24.68-55.2 55.17 0 23.15 14.28 42.97 34.48 51.18z"/>
							<path id="&lt;Compound Path&gt;" fill-rule="evenodd" class="s8" d="m267.86 484.01c30.48 0 55.18 24.7 55.18 55.18 0 30.48-24.7 55.19-55.18 55.19-30.47 0-55.17-24.71-55.17-55.19 0-30.48 24.7-55.18 55.17-55.18zm0 106.02c28.03 0 50.83-22.82 50.83-50.84 0-28.03-22.8-50.83-50.83-50.83-28.02 0-50.82 22.8-50.82 50.83 0 28.02 22.8 50.84 50.82 50.84z"/>
						</g>
						<path id="&lt;Path&gt;" class="s1" d="m226.67 539.2c0 22.75 18.44 41.19 41.19 41.19 22.76 0 41.2-18.44 41.2-41.19 0-22.76-18.44-41.2-41.2-41.2-22.75 0-41.19 18.44-41.19 41.2z"/>
						<g id="&lt;Group&gt;">
							<g id="&lt;Group&gt;">
								<path id="&lt;Compound Path&gt;" fill-rule="evenodd" class="s1" d="m224.93 539.2c0-23.68 19.26-42.94 42.93-42.94 23.68 0 42.94 19.26 42.94 42.94 0 23.67-19.26 42.93-42.94 42.93-23.67 0-42.93-19.26-42.93-42.93zm3.48 0c0 21.75 17.7 39.45 39.45 39.45 21.76 0 39.46-17.7 39.46-39.45 0-21.76-17.7-39.46-39.46-39.46-21.75 0-39.45 17.7-39.45 39.46z"/>
							</g>
						</g>
						<path id="&lt;Path&gt;" class="s9" d="m243.61 539.2c0 13.39 10.86 24.25 24.25 24.25 13.4 0 24.26-10.86 24.26-24.25 0-13.4-10.86-24.26-24.26-24.26-13.39 0-24.25 10.86-24.25 24.26z"/>
						<path id="&lt;Path&gt;" class="s10" d="m265.3 518.18c0 10.95 8.88 19.83 19.83 19.83 10.96 0 19.84-8.88 19.84-19.83 0-10.96-8.88-19.84-19.84-19.84-10.95 0-19.83 8.88-19.83 19.84z"/>
						<path id="&lt;Path&gt;" class="s1" d="m257.56 539.2c0 5.69 4.61 10.3 10.3 10.3 5.69 0 10.3-4.61 10.3-10.3 0-5.69-4.61-10.3-10.3-10.3-5.69 0-10.3 4.61-10.3 10.3z"/>
						<path id="&lt;Path&gt;" class="s10" d="m246.74 559c0 4.44 3.6 8.03 8.03 8.03 4.44 0 8.03-3.59 8.03-8.03 0-4.43-3.59-8.03-8.03-8.03-4.43 0-8.03 3.6-8.03 8.03z"/>
						<path id="&lt;Path&gt;" class="s2" d="m279.88 517.85c0 3.38 2.74 6.12 6.12 6.12 3.38 0 6.12-2.74 6.12-6.12 0-3.38-2.74-6.12-6.12-6.12-3.38 0-6.12 2.74-6.12 6.12z"/>
					</g>
					<path id="&lt;Path&gt;" class="s1" d="m330.87 505.05v9.01c0 2.25 1.83 4.08 4.08 4.08h20.36c2.26 0 4.08-1.83 4.08-4.08v-9.01c0-2.25-1.82-4.08-4.08-4.08h-20.36c-2.25 0-4.08 1.83-4.08 4.08z"/>
				</g>
				<g id="&lt;Group&gt;">
					<path id="&lt;Path&gt;" class="s0" d="m504.5 525.75c-25.19-21.84-57.39-35.01-89.51-43.97-15.33-4.28-29.92-14.23-45.82-13.38-10.77 0.57-22.26 2.68-33.03 3.25-1.37 1.37-0.8 3.86 0.65 5.14 1.45 1.28 3.46 1.68 5.36 2.02 4.88 0.88 12.4 0.85 16.74 3.24 12.31 6.77 27.41 14.32 39.72 21.09q-36.63 5.93-73.26 11.85c-2.97 0.48-5.21 2.7-5.62 5.67-0.42 2.98 1.26 6.12 3.96 7.43-2.6 2.45 0.55 8.19 3.37 10.39 2.81 2.2 6.59 2.6 10.15 2.91q13.11 1.17 26.22 2.33-12.16 0.5-24.32 1c-2.04-0.25-3.95 1.84-3.96 3.88-0.01 2.05 1.39 3.9 3.13 4.98 1.74 1.08 3.79 1.53 5.79 1.94 15.21 3.15 30.63 5.28 46.12 6.38 17.93 1.28 33.15 16.72 50.81 20.08 17.65 3.35 37.09 1.44 51.6-9.17 14.5-10.61 25.48-35.29 11.9-47.06z"/>
					<path id="&lt;Path&gt;" class="s1" d="m321.55 529.79q0.05 0 0.09 0l83.95-4.95c0.88-0.05 1.56-0.81 1.51-1.7-0.06-0.88-0.84-1.59-1.7-1.5l-83.95 4.94c-0.88 0.05-1.56 0.81-1.51 1.7 0.06 0.85 0.76 1.51 1.61 1.51z"/>
					<path id="&lt;Path&gt;" class="s1" d="m388.24 547.28q8.65 0 17.27-0.45c0.88-0.05 1.56-0.81 1.52-1.69-0.05-0.89-0.85-1.62-1.69-1.52-21.09 1.1-42.38 0.16-63.3-2.83-0.85-0.12-1.69 0.49-1.82 1.37-0.12 0.88 0.49 1.69 1.37 1.81 15.42 2.2 31.05 3.31 46.65 3.31z"/>
					<path id="&lt;Path&gt;" class="s1" d="m464.08 586.47q4.45 0.01 8.88-0.44c0.89-0.09 1.53-0.88 1.44-1.76-0.09-0.88-0.92-1.54-1.76-1.44-14.8 1.49-29.78-0.91-43.38-6.93-0.8-0.36-1.76 0-2.12 0.82-0.36 0.81 0.01 1.76 0.82 2.12 11.39 5.04 23.72 7.63 36.12 7.63z"/>
				</g>
				<g id="&lt;Group&gt;">
					<path id="&lt;Path&gt;" class="s0" d="m102.8 550.95c0.11 11.28 7.52 22.15 17.99 26.37 10.46 4.22 24.17 3.06 32.08-4.99 10.42 2.59 21.34 3.15 31.98 1.66 2.25-0.32 4.64-0.8 6.23-2.42 1.6-1.61 2.42-7.12 0.49-8.31 3.32 1.07 6.74 2.15 10.22 1.97 3.49-0.19 7.12-1.91 8.57-5.08 1.45-3.18 1.03-9.89-2.4-10.53q10.43 2.31 20.86 4.61c3.15 0.69 6.98 1.18 9.1-1.24 1.53-1.74 1.5-4.43 0.54-6.53-0.96-2.11-1.13-2.79-3.06-4.07-23.29-15.45-45.6-32.65-68.89-48.1 0-2.18 0.28-4.71 0.28-6.89 7.06-5.3 15-10.15 22.05-15.45 3.45 0 7.97-0.02 11.42-0.02q9.67-0.47 19.33-0.94c2.53-0.12 5.15-0.26 7.4-1.43 2.25-1.16 4.3-5.13 3.82-7.62-17.64-1.75-37.59-11.53-54.12-5.13l-34.37 13.33c-7.75 3-14.37 8.35-18.91 15.31-7.38 11.3-13.64 23.35-17.73 36.14-3.12 9.78-2.97 19.08-2.88 29.36z"/>
					<path id="&lt;Path&gt;" class="s1" d="m214.58 553.34c0.61 0 1.2-0.35 1.46-0.95 0.37-0.81 0.01-1.76-0.8-2.12l-55.33-24.83c-0.8-0.37-1.76-0.01-2.12 0.8-0.36 0.81 0 1.76 0.81 2.13l55.32 24.83q0.32 0.14 0.66 0.14z"/>
					<path id="&lt;Path&gt;" class="s1" d="m195.8 567.05c0.63 0 1.24-0.38 1.49-1.02 0.33-0.82-0.07-1.75-0.9-2.08l-40.71-16.21c-0.81-0.32-1.75 0.08-2.08 0.9-0.33 0.83 0.07 1.76 0.9 2.09l40.7 16.2q0.3 0.12 0.6 0.12z"/>
					<path id="&lt;Path&gt;" class="s1" d="m131.22 571.94c0.41 0 0.82-0.15 1.13-0.46 0.63-0.62 0.64-1.64 0.02-2.27-4.55-4.64-6.46-13.7-2.2-18.88 0.34-0.41 0.45-0.98 0.29-1.49-0.16-0.52-0.57-0.92-1.09-1.07-4.34-1.25-7.77-5.25-8.35-9.72-0.59-4.57 2.03-10.14 5.85-12.42 0.49-0.29 0.79-0.82 0.78-1.39 0-0.57-0.31-1.1-0.8-1.38-3.36-1.93-5.57-5.68-5.65-9.55-0.07-3.75 3.99-9.34 7.4-11.47 0.46-0.29 0.75-0.8 0.75-1.34 0.01-0.55-0.26-1.06-0.72-1.36-3.25-2.16-5.31-6.09-5.23-10 0.02-0.88-0.68-1.62-1.57-1.63-0.95 0.01-1.62 0.68-1.64 1.57-0.09 4.24 1.79 8.49 4.92 11.36-3.71 3.16-7.2 8.7-7.12 12.93 0.08 4.18 2.1 8.25 5.31 10.92-3.79 3.37-6.11 9.15-5.47 14.17 0.65 4.99 4.07 9.51 8.61 11.63-3.79 6.68-1.4 16.23 3.64 21.37 0.31 0.32 0.73 0.48 1.14 0.48z"/>
					<path id="&lt;Path&gt;" class="s1" d="m137.38 581.8c6.8 0 13.92-5.25 17.06-10.76 4.83 0.5 9.39 0.78 13.8 1.04 4.58 0.27 9.31 0.55 14.31 1.09 2.75 1.95 6.47 2.42 9.62 1.18 2.64-1.04 5.65-3.44 6.78-6.51 3.87-0.04 7.69-2.06 9.82-5.3 0.49-0.74 0.28-1.74-0.46-2.23-0.73-0.49-1.73-0.28-2.23 0.46-1.73 2.65-4.98 4.17-8.16 3.8-0.79-0.12-1.64 0.49-1.78 1.35-0.37 2.36-2.93 4.56-5.15 5.44-2.21 0.87-4.97 0.47-6.84-1q-0.37-0.28-0.82-0.34c-5.24-0.58-10.15-0.87-14.89-1.15-4.71-0.28-9.58-0.57-14.74-1.14-0.68-0.08-1.33 0.28-1.62 0.9-2.41 5.07-9.49 10.39-15.45 9.92-0.8-0.07-1.66 0.59-1.73 1.48-0.07 0.88 0.59 1.66 1.47 1.72q0.51 0.05 1.01 0.05z"/>
				</g>
				<g id="&lt;Group&gt;">
					<g id="&lt;Group&gt;">
						<g id="&lt;Group&gt;">
							<g id="&lt;Group&gt;">
								<g id="&lt;Group&gt;">
									<path id="&lt;Path&gt;" class="s11" d="m501.34 299.68c-1.16 8.13-7.88 15.17-15.95 16.71"/>
									<path id="&lt;Path&gt;" class="s1" d="m461.04 312.07c-0.67-7.03-0.78-14.36 1.95-20.87 2.74-6.51 8.96-11.99 16.02-11.91 6.43 0.07 12.24 4.88 14.57 10.87 2.33 6 1.54 12.89-1.02 18.79-2.56 5.91-6.76 10.95-11.28 15.53z"/>
								</g>
								<path id="&lt;Path&gt;" class="s1" d="m508.77 378.4c10.5 18.59 8.36 43.53-5.15 60.06-13.51 16.52-38.59 28.4-57.67 18.82-6.96-3.5-12.75-9.27-16.26-16.23-3.51-6.95-4.52-13.97-3.2-21.65-6.11-11.52-8.81-25.59-19.05-33.69-8.53-6.75-12.88-18.03-12.36-28.9 0.52-10.87 5.56-21.23 12.84-29.33 14.1-15.68 37.01-22.87 57.54-18.06 20.54 4.81 37.87 21.42 43.55 41.74z"/>
							</g>
							<path id="&lt;Path&gt;" class="s12" d="m486.7 317.83c-8.32-5.1-17.56-8.71-27.13-10.6"/>
						</g>
						<path id="&lt;Path&gt;" class="s13" d="m469.74 408.94c0.49 2.79-0.16 5.75-1.76 8.08-1.61 2.32-4.15 3.98-6.93 4.51"/>
					</g>
					<g id="&lt;Group&gt;">
						<path id="&lt;Path&gt;" class="s0" d="m428.75 431.98c-8.21-15.89-18.08-30.65-24.4-47.39-4.98-13.2-0.4-30.05 9.94-39.65q31.72 7.54 63.45 15.08c3.36 11.76 6.63 23.62 9.99 35.38-13.9 5.74-27.53 10.83-41.43 16.57-8.22 3.39-12.12 12.98-17.55 20.01z"/>
						<g id="&lt;Group&gt;">
							<path id="&lt;Path&gt;" class="s1" d="m452.76 382.93c-1.21-2.52-0.14-5.54 2.38-6.75 2.52-1.21 5.55-0.15 6.76 2.38 1.21 2.52 0.14 5.54-2.38 6.75-2.52 1.21-5.55 0.15-6.76-2.38z"/>
							<path id="&lt;Path&gt;" class="s1" d="m417.73 402.13c-1.2-2.52-0.14-5.55 2.38-6.76 2.53-1.21 5.55-0.14 6.76 2.38 1.21 2.53 0.15 5.55-2.38 6.76-2.52 1.21-5.55 0.14-6.76-2.38z"/>
							<path id="&lt;Path&gt;" class="s14" d="m436.61 392.28q2.12 11.74 4.25 23.48 3.98-2.47 7.95-4.94"/>
							<path id="&lt;Path&gt;" class="s14" d="m455.93 355.95q-8.32 5.24-16.65 10.49"/>
							<path id="&lt;Path&gt;" class="s14" d="m416.61 377.86q-6.28 3.39-12.56 6.78"/>
						</g>
					</g>
				</g>
			</g>
		</g>
	</g>
</svg>