<svg width="413" height="47" viewBox="0 0 413 47" fill="none" xmlns="http://www.w3.org/2000/svg">
<path d="M4.76837e-06 45.7598V1.21576H18.624C21.7387 1.21576 24.4267 1.79176 26.688 2.94376C29.2907 4.26643 31.36 6.1651 32.896 8.63976C34.432 11.0718 35.2 13.7598 35.2 16.7038C35.2 19.6478 34.432 22.3571 32.896 24.8318C31.4027 27.3064 29.3547 29.2051 26.752 30.5278C24.5333 31.6798 21.824 32.2558 18.624 32.2558H11.648V45.7598H4.76837e-06ZM46.799 1.21576H78.159V3.58376H49.167V21.6318H74.383V23.9998H49.167V43.3918H78.159V45.7598H46.799V1.21576ZM94.238 28.7358C94.238 31.5518 94.942 34.1544 96.35 36.5438C97.8007 38.9331 99.7207 40.8318 102.11 42.2398C104.542 43.6478 107.166 44.3518 109.982 44.3518C112.883 44.3518 115.507 43.7758 117.854 42.6238C120.201 41.4718 122.035 39.8718 123.358 37.8238C124.723 35.7758 125.427 33.4718 125.47 30.9118H127.774C127.774 33.8558 126.985 36.5438 125.406 38.9758C123.87 41.3651 121.737 43.2638 119.006 44.6718C116.318 46.0371 113.31 46.7198 109.982 46.7198C106.739 46.7198 103.731 45.9091 100.958 44.2878C98.1847 42.6664 95.9873 40.4904 94.366 37.7598C92.7447 34.9864 91.934 31.9784 91.934 28.7358V18.2398C91.934 14.9971 92.7233 12.0104 94.302 9.27976C95.9233 6.50643 98.0993 4.3091 100.83 2.68776C103.603 1.06643 106.611 0.255764 109.854 0.255764C113.139 0.255764 116.126 0.959764 118.814 2.36776C121.545 3.7331 123.699 5.63176 125.278 8.06376C126.857 10.4531 127.646 13.1198 127.646 16.0638H125.342C125.299 13.5038 124.595 11.1998 123.23 9.15176C121.865 7.10376 120.009 5.50377 117.662 4.35176C115.358 3.19976 112.755 2.62376 109.854 2.62376C107.038 2.62376 104.435 3.32776 102.046 4.73576C99.6567 6.14376 97.758 8.04243 96.35 10.4318C94.942 12.8211 94.238 15.4238 94.238 18.2398V28.7358ZM139.757 45.7598V1.21576H142.125V22.2718H171.693V1.21576H174.061V45.7598H171.693V24.6398H142.125V45.7598H139.757ZM203.068 1.21576H205.564L223.868 45.7598H221.308L215.292 31.0398H193.34L187.26 45.7598H184.764L203.068 1.21576ZM194.3 28.7358H214.332L204.284 4.28777L194.3 28.7358ZM269.643 1.21576V3.58376H252.811V45.7598H250.507V3.58376H233.675V1.21576H269.643Z" fill="black"/>
<path d="M284.25 45.7598V1.21576H302.874C305.989 1.21576 308.677 1.79176 310.938 2.94376C313.541 4.26643 315.61 6.1651 317.146 8.63976C318.682 11.0718 319.45 13.7598 319.45 16.7038C319.45 19.6478 318.682 22.3571 317.146 24.8318C315.653 27.3064 313.605 29.2051 311.002 30.5278C308.783 31.6798 306.074 32.2558 302.874 32.2558H295.898V45.7598H284.25ZM364.841 45.7598H330.601V1.21576H347.945C351.657 1.21576 354.686 1.8771 357.033 3.19976C359.337 4.47976 361.129 6.2291 362.409 8.44777C363.689 10.6664 364.329 13.1198 364.329 15.8078C364.329 19.1358 363.305 22.1224 361.257 24.7678C359.209 27.3704 356.628 29.0984 353.513 29.9518L364.841 45.7598ZM334.633 3.58376L352.041 27.9038C354.9 27.3064 357.268 25.8771 359.145 23.6158C361.022 21.3544 361.961 18.7518 361.961 15.8078C361.961 13.4611 361.385 11.3278 360.233 9.40776C359.081 7.48776 357.46 6.01576 355.369 4.99176C353.492 4.0531 351.038 3.58376 348.009 3.58376H334.633ZM332.969 5.11976V28.0958H349.417L332.969 5.11976ZM332.969 43.3918H360.361L351.017 30.3998L349.033 30.4638H332.969V43.3918ZM375.224 18.5598C375.224 15.2318 376.056 12.1384 377.72 9.27976C379.384 6.4211 381.624 4.15976 384.44 2.49576C387.299 0.831763 390.413 -0.000236511 393.784 -0.000236511C397.155 -0.000236511 400.248 0.831763 403.064 2.49576C405.923 4.15976 408.184 6.4211 409.848 9.27976C411.512 12.1384 412.344 15.2318 412.344 18.5598V28.4158C412.344 31.7438 411.512 34.8371 409.848 37.6958C408.184 40.5544 405.923 42.8158 403.064 44.4798C400.248 46.1438 397.155 46.9758 393.784 46.9758C390.413 46.9758 387.299 46.1438 384.44 44.4798C381.624 42.8158 379.384 40.5544 377.72 37.6958C376.056 34.8371 375.224 31.7438 375.224 28.4158V18.5598ZM386.872 28.4158C386.872 30.4638 387.512 32.2131 388.792 33.6638C390.072 35.1144 391.736 35.8398 393.784 35.8398C395.789 35.8398 397.432 35.1144 398.712 33.6638C399.992 32.2131 400.632 30.4638 400.632 28.4158V18.4958C400.632 16.4051 399.992 14.6558 398.712 13.2478C397.432 11.8398 395.789 11.1358 393.784 11.1358C391.736 11.1358 390.072 11.8398 388.792 13.2478C387.512 14.6558 386.872 16.4051 386.872 18.4958V28.4158Z" fill="#FFA30E"/>
</svg>
