<svg width="412" height="47" viewBox="0 0 412 47" fill="none" xmlns="http://www.w3.org/2000/svg">
<path d="M4.76837e-06 45.7598V1.21576H18.624C21.7387 1.21576 24.4267 1.79176 26.688 2.94376C29.2907 4.26643 31.36 6.1651 32.896 8.63976C34.432 11.0718 35.2 13.7598 35.2 16.7038C35.2 19.6478 34.432 22.3571 32.896 24.8318C31.4027 27.3064 29.3547 29.2051 26.752 30.5278C24.5333 31.6798 21.824 32.2558 18.624 32.2558H11.648V45.7598H4.76837e-06ZM80.591 45.7598H46.351V1.21576H63.695C67.407 1.21576 70.4363 1.8771 72.783 3.19976C75.087 4.47976 76.879 6.2291 78.159 8.44777C79.439 10.6664 80.079 13.1198 80.079 15.8078C80.079 19.1358 79.055 22.1224 77.007 24.7678C74.959 27.3704 72.3777 29.0984 69.263 29.9518L80.591 45.7598ZM50.383 3.58376L67.791 27.9038C70.6497 27.3064 73.0177 25.8771 74.895 23.6158C76.7723 21.3544 77.711 18.7518 77.711 15.8078C77.711 13.4611 77.135 11.3278 75.983 9.40776C74.831 7.48776 73.2097 6.01576 71.119 4.99176C69.2417 4.0531 66.7883 3.58376 63.759 3.58376H50.383ZM48.719 5.11976V28.0958H65.167L48.719 5.11976ZM48.719 43.3918H76.111L66.767 30.3998L64.783 30.4638H48.719V43.3918ZM90.974 18.5598C90.974 15.2318 91.806 12.1384 93.47 9.27976C95.134 6.4211 97.374 4.15976 100.19 2.49576C103.049 0.831763 106.163 -0.000236511 109.534 -0.000236511C112.905 -0.000236511 115.998 0.831763 118.814 2.49576C121.673 4.15976 123.934 6.4211 125.598 9.27976C127.262 12.1384 128.094 15.2318 128.094 18.5598V28.4158C128.094 31.7438 127.262 34.8371 125.598 37.6958C123.934 40.5544 121.673 42.8158 118.814 44.4798C115.998 46.1438 112.905 46.9758 109.534 46.9758C106.163 46.9758 103.049 46.1438 100.19 44.4798C97.374 42.8158 95.134 40.5544 93.47 37.6958C91.806 34.8371 90.974 31.7438 90.974 28.4158V18.5598ZM102.622 28.4158C102.622 30.4638 103.262 32.2131 104.542 33.6638C105.822 35.1144 107.486 35.8398 109.534 35.8398C111.539 35.8398 113.182 35.1144 114.462 33.6638C115.742 32.2131 116.382 30.4638 116.382 28.4158V18.4958C116.382 16.4051 115.742 14.6558 114.462 13.2478C113.182 11.8398 111.539 11.1358 109.534 11.1358C107.486 11.1358 105.822 11.8398 104.542 13.2478C103.262 14.6558 102.622 16.4051 102.622 18.4958V28.4158Z" fill="#0CAD57"/>
<path d="M142.125 45.7598V1.21576H160.749C163.864 1.21576 166.552 1.79176 168.813 2.94376C171.416 4.26643 173.485 6.1651 175.021 8.63976C176.557 11.0718 177.325 13.7598 177.325 16.7038C177.325 19.6478 176.557 22.3571 175.021 24.8318C173.528 27.3064 171.48 29.2051 168.877 30.5278C166.658 31.6798 163.949 32.2558 160.749 32.2558H153.773V45.7598H142.125ZM188.924 1.21576H220.284V3.58376H191.292V21.6318H216.508V23.9998H191.292V43.3918H220.284V45.7598H188.924V1.21576ZM236.363 28.7358C236.363 31.5518 237.067 34.1544 238.475 36.5438C239.926 38.9331 241.846 40.8318 244.235 42.2398C246.667 43.6478 249.291 44.3518 252.107 44.3518C255.008 44.3518 257.632 43.7758 259.979 42.6238C262.326 41.4718 264.16 39.8718 265.483 37.8238C266.848 35.7758 267.552 33.4718 267.595 30.9118H269.899C269.899 33.8558 269.11 36.5438 267.531 38.9758C265.995 41.3651 263.862 43.2638 261.131 44.6718C258.443 46.0371 255.435 46.7198 252.107 46.7198C248.864 46.7198 245.856 45.9091 243.083 44.2878C240.31 42.6664 238.112 40.4904 236.491 37.7598C234.87 34.9864 234.059 31.9784 234.059 28.7358V18.2398C234.059 14.9971 234.848 12.0104 236.427 9.27976C238.048 6.50643 240.224 4.3091 242.955 2.68776C245.728 1.06643 248.736 0.255764 251.979 0.255764C255.264 0.255764 258.251 0.959764 260.939 2.36776C263.67 3.7331 265.824 5.63176 267.403 8.06376C268.982 10.4531 269.771 13.1198 269.771 16.0638H267.467C267.424 13.5038 266.72 11.1998 265.355 9.15176C263.99 7.10376 262.134 5.50377 259.787 4.35176C257.483 3.19976 254.88 2.62376 251.979 2.62376C249.163 2.62376 246.56 3.32776 244.171 4.73576C241.782 6.14376 239.883 8.04243 238.475 10.4318C237.067 12.8211 236.363 15.4238 236.363 18.2398V28.7358ZM281.882 45.7598V1.21576H284.25V22.2718H313.818V1.21576H316.186V45.7598H313.818V24.6398H284.25V45.7598H281.882ZM345.193 1.21576H347.689L365.993 45.7598H363.433L357.417 31.0398H335.465L329.385 45.7598H326.889L345.193 1.21576ZM336.425 28.7358H356.457L346.409 4.28777L336.425 28.7358ZM411.768 1.21576V3.58376H394.936V45.7598H392.632V3.58376H375.8V1.21576H411.768Z" fill="white"/>
</svg>
